<svg xmlns="http://www.w3.org/2000/svg" fill="none" viewBox="0 0 156 156">
  <path fill="#F6904C" d="M0 0h156v156H0z" />
  <mask id="a" width="131" height="114" x="7" y="19" maskUnits="userSpaceOnUse" style="mask-type:alpha">
    <path fill="#000" d="m71.9115 19 65.2315 113.875H7L71.9115 19Z" />
  </mask>
  <g fill-rule="evenodd" clip-rule="evenodd" mask="url(#a)">
    <path fill="#fff" d="m49.0338 83.703 65.3442.1072-.02 12.2009-88.66-.1455.02-12.2009 9.2811.0152L74.1134 15.139l10.5968 6.0473L49.0338 83.703Zm17.7505 30.708H87.335l3.7642 6.67H44.416v12.201h53.5689l6.3441 11.241 10.626-5.997-20.4897-36.305-.0257.015v-.026H74.1048l-7.3205 12.201Z" />
    <path fill="#FBDDC9" d="M96.3653 23.7661 29.5352 139.595l10.568 6.097 45.5635-78.9696 48.5573 87.2606 10.662-5.933-52.1116-93.6465 14.1586-24.5399-10.5677-6.0975Z" />
  </g>
</svg>