<svg xmlns="http://www.w3.org/2000/svg" fill="none" viewBox="0 0 192 192">
  <path fill="#fff" d="M-.00012207.00000381H192V192H-.00012207V.00000381Z" />
  <path fill="#77938A" fill-rule="evenodd" d="M66.6914 45.112c1.0762-.6213 2.3551-.7897 3.5554-.468 1.2002.3216 2.2236 1.1068 2.8449 2.183l7.028 12.1728c.6213 1.0762.7897 2.3551.4681 3.5554-.3216 1.2002-1.1069 2.2236-2.183 2.8449-1.0762.6213-2.3551.7897-3.5554.4681-1.2002-.3216-2.2236-1.1069-2.8449-2.183l-7.028-12.1729c-.6213-1.0761-.7897-2.355-.4681-3.5553.3216-1.2003 1.1069-2.2237 2.183-2.845ZM40.4949 79.2515c.3221-1.1991 1.107-2.2213 2.1822-2.8421 1.0753-.6208 2.353-.7895 3.5525-.4689l13.5826 3.6349c1.1808.3391 2.1812 1.1284 2.7857 2.1979.6045 1.0695.7647 2.3337.4462 3.5202-.3185 1.1865-1.0903 2.2005-2.1492 2.8235-1.0589.6229-2.32.8051-3.5119.5073l-13.574-3.6326c-.5946-.1591-1.1521-.4339-1.6405-.8085-.4884-.3746-.8982-.8418-1.2059-1.3749-.3078-.5331-.5075-1.1216-.5878-1.7319-.0802-.6103-.0394-1.2304.1201-1.8249Zm68.8601-39.7566c1.199.3221 2.222 1.107 2.843 2.1822.62 1.0753.789 2.353.468 3.5525l-3.635 13.5826c-.339 1.1808-1.128 2.1812-2.197 2.7857-1.07.6045-2.334.7647-3.521.4462-1.186-.3185-2.2-1.0903-2.823-2.1492-.6231-1.0588-.8052-2.32-.5074-3.5119l3.6324-13.574c.159-.5946.434-1.1521.809-1.6405.374-.4884.842-.8982 1.375-1.2059.533-.3078 1.121-.5075 1.731-.5878.611-.0802 1.231-.0394 1.825.1201ZM86.5233 85.1091c.6951-.6954 1.5915-1.1544 2.562-1.3121.9705-.1578 1.9661-.0061 2.8457.4334l53.014 26.5026c.829.414 1.517 1.065 1.976 1.871.459.806.669 1.729.603 2.654-.067.925-.406 1.809-.975 2.542-.569.732-1.342 1.278-2.222 1.57l-12.689 4.224 17.836 17.836c.879.879 1.372 2.072 1.372 3.315 0 1.244-.495 2.436-1.374 3.315-.88.879-2.073 1.373-3.316 1.372-1.244 0-2.436-.494-3.315-1.374l-17.827-17.833-4.226 12.683c-.292.88-.839 1.654-1.571 2.224-.733.569-1.617.908-2.542.974-.926.066-1.85-.144-2.655-.604-.806-.459-1.457-1.147-1.871-1.977L85.6469 90.5131c-.4405-.8793-.5933-1.8748-.4366-2.8457.1568-.9708.615-1.8678 1.3098-2.5637l.0032.0054ZM46.112 121.915c-.6213-1.076-.7897-2.355-.4681-3.555.3217-1.2 1.1069-2.224 2.1831-2.845l12.1728-7.028c1.0762-.621 2.3551-.79 3.5553-.468 1.2003.322 2.2237 1.107 2.845 2.183.6213 1.076.7897 2.355.4681 3.555-.3216 1.201-1.1069 2.224-2.183 2.845l-12.1729 7.028c-1.0761.622-2.355.79-3.5553.468-1.2003-.321-2.2237-1.106-2.845-2.183Zm77.095-44.5102c-.622-1.0762-.79-2.3551-.468-3.5553.321-1.2003 1.107-2.2237 2.183-2.845l12.173-7.028c1.076-.6213 2.355-.7897 3.555-.4681 1.2.3216 2.224 1.1069 2.845 2.183.621 1.0762.79 2.3551.468 3.5553-.322 1.2003-1.107 2.2237-2.183 2.845l-12.173 7.028c-1.076.6213-2.355.7897-3.555.4681-1.201-.3216-2.224-1.1069-2.845-2.183ZM86.3156 125.481c.5946.159 1.152.433 1.6404.808.4884.375.8982.842 1.206 1.375.3078.533.5075 1.122.5877 1.732.0803.61.0395 1.23-.12 1.825l-3.638 13.577c-.1503.604-.4193 1.171-.7913 1.67-.3721.499-.8397.918-1.3756 1.234-.5359.316-1.1294.522-1.7458.606-.6164.085-1.2434.045-1.8444-.116-.6011-.16-1.164-.439-1.6561-.82-.4921-.38-.9035-.855-1.2101-1.397-.3067-.541-.5024-1.138-.5759-1.756-.0734-.617-.0231-1.244.148-1.842l3.6349-13.582c.3221-1.199 1.107-2.222 2.1823-2.842 1.0752-.621 2.353-.79 3.5525-.469l.0054-.003Z" clip-rule="evenodd" />
</svg>