<svg xmlns="http://www.w3.org/2000/svg" fill="none" viewBox="0 0 192 192">
  <path fill="#DAE3D1" d="M0 0h192v192H0z" />
  <path stroke="#5E803D" stroke-linecap="round" stroke-linejoin="round" stroke-width="8.625" d="M49.8847 74.2822C44.5054 80.6313 40.4997 88.0259 38.1202 96c7.429 24.943 30.5325 43.125 57.8795 43.125 5.7093 0 11.2293-.794 16.4623-2.271M62.8107 62.811c9.8476-6.4986 21.3905-9.9543 33.189-9.936 27.3473 0 50.4443 18.1815 57.8733 43.1135-4.071 13.6235-12.811 25.3775-24.684 33.2005M62.8107 62.811 44.2497 44.25m18.561 18.561 20.9875 20.9875m45.3908 45.3905 18.561 18.561m-18.561-18.561-20.988-20.988m0 0c1.602-1.601 2.873-3.503 3.74-5.596s1.313-4.3366 1.313-6.6021c0-2.2655-.446-4.5088-1.313-6.6019-.867-2.093-2.138-3.9948-3.74-5.5968-1.602-1.6019-3.503-2.8726-5.597-3.7396-2.093-.867-4.3359-1.3132-6.6014-1.3132-2.2655 0-4.5088.4462-6.6018 1.3132-2.0931.867-3.9949 2.1377-5.5968 3.7396m24.391 24.3918L83.8097 83.81" />
</svg>