<svg xmlns="http://www.w3.org/2000/svg" fill="none" viewBox="0 0 528 528">
  <path fill="#111827" d="M0 0h528v528H0z" />
  <mask id="a" width="528" height="528" x="0" y="0" maskUnits="userSpaceOnUse" style="mask-type:alpha">
    <path fill="#C4C4C4" d="M0 0h528v528H0z" />
  </mask>
  <g mask="url(#a)">
    <rect width="341.579" height="341.579" x="96.2097" y="91.9738" fill="url(#b)" rx="170.789" />
    <path fill="url(#c)" d="M305.491 264.039c-15.343 21.74.204 51.743 26.813 51.743h8.561c13.398 0 24.258 10.86 24.258 24.258 0 13.397-10.86 24.258-24.258 24.258H184.848c-8.753 0-15.848-7.095-15.848-15.848 0-3.272 1.013-6.464 2.9-9.138l55.274-78.319c14.968-21.208-.2-50.477-26.158-50.477h-7.758c-13.397 0-24.258-10.861-24.258-24.258C169 172.861 179.861 162 193.258 162h153.665c8.753 0 15.848 7.095 15.848 15.848 0 3.272-1.013 6.464-2.9 9.138l-54.38 77.053Z" />
    <g filter="url(#d)">
      <path fill="url(#e)" d="M268.973 315.782h71.892c13.397 0 24.258 10.86 24.258 24.258 0 13.397-10.861 24.258-24.258 24.258H184.848c-8.753 0-15.848-7.095-15.848-15.848 0-3.272 1.013-6.464 2.9-9.138l90.898-128.796h-69.54c-13.397 0-24.258-10.861-24.258-24.258C169 172.861 179.861 162 193.258 162h153.665c8.753 0 15.848 7.095 15.848 15.848 0 3.272-1.013 6.464-2.9 9.138l-90.898 128.796Z" />
    </g>
    <g stroke-width="7.74152" opacity=".25" style="mix-blend-mode:color-dodge">
      <path stroke="url(#f)" d="m569.97 422.618-3.163-2.232 3.163 2.232c2.202-3.12 3.384-6.845 3.384-10.664 0-10.214-8.28-18.494-18.494-18.494H410.895c-14.5 0-26.255 11.754-26.255 26.255 0 14.5 11.755 26.254 26.255 26.254h7.9c21.415 0 33.928 24.147 21.58 41.643l-50.18 71.101 3.163 2.232-3.163-2.232c-2.202 3.12-3.384 6.845-3.384 10.664 0 10.214 8.28 18.494 18.494 18.494h141.794c14.5 0 26.255-11.755 26.255-26.255 0-14.5-11.755-26.255-26.255-26.255h-7.159c-20.814 0-32.976-23.469-20.974-40.475l51.004-72.268Z" />
      <path stroke="url(#g)" d="m354.313 421.978-3.162-2.232 3.162 2.232c2.202-3.12 3.384-6.845 3.384-10.664 0-10.214-8.28-18.494-18.494-18.494H195.239c-14.5 0-26.255 11.754-26.255 26.255 0 14.5 11.755 26.254 26.255 26.254h7.899c21.415 0 33.928 24.147 21.58 41.643l-50.179 71.101 3.162 2.232-3.162-2.232c-2.202 3.12-3.384 6.845-3.384 10.664 0 10.214 8.28 18.494 18.494 18.494h141.793c14.5 0 26.255-11.755 26.255-26.255 0-14.5-11.754-26.255-26.255-26.255h-7.158c-20.815 0-32.976-23.469-20.975-40.475l51.004-72.268Z" />
      <path stroke="url(#h)" d="m139.459 422.618-3.163-2.232 3.163 2.232c2.202-3.12 3.384-6.845 3.384-10.664 0-10.214-8.28-18.494-18.494-18.494H-19.6157c-14.5002 0-26.2548 11.754-26.2548 26.255 0 14.5 11.7547 26.254 26.2548 26.254h7.8995c21.41499 0 33.9279 24.147 21.57976 41.643l-50.17946 71.101 3.1625 2.232-3.1625-2.232c-2.2019 3.12-3.3841 6.845-3.3841 10.664 0 10.214 8.2801 18.494 18.4941 18.494H116.588c14.5 0 26.255-11.755 26.255-26.255 0-14.5-11.755-26.255-26.255-26.255h-7.159c-20.814 0-32.976-23.469-20.9742-40.475l51.0042-72.268Z" />
      <path stroke="url(#i)" d="m569.97 197.241-3.163-2.232 3.163 2.232c2.202-3.12 3.384-6.846 3.384-10.664 0-10.214-8.28-18.494-18.494-18.494H410.895c-14.5 0-26.255 11.754-26.255 26.254 0 14.501 11.755 26.255 26.255 26.255h7.9c21.415 0 33.928 24.147 21.58 41.643l-50.18 71.101 3.163 2.232-3.163-2.232c-2.202 3.12-3.384 6.845-3.384 10.664 0 10.214 8.28 18.494 18.494 18.494h141.794c14.5 0 26.255-11.755 26.255-26.255 0-14.5-11.755-26.255-26.255-26.255h-7.159c-20.814 0-32.976-23.469-20.974-40.475l51.004-72.268Z" />
      <path stroke="url(#j)" d="m139.459 197.241-3.163-2.232 3.163 2.232c2.202-3.12 3.384-6.846 3.384-10.664 0-10.214-8.28-18.494-18.494-18.494H-19.6157c-14.5002 0-26.2548 11.754-26.2548 26.254 0 14.501 11.7547 26.255 26.2548 26.255h7.8995c21.41499 0 33.9279 24.147 21.57976 41.643l-50.17946 71.101 3.1625 2.232-3.1625-2.232C-42.5178 336.456-43.7 340.181-43.7 344c0 10.214 8.2801 18.494 18.4941 18.494H116.588c14.5 0 26.255-11.755 26.255-26.255 0-14.5-11.755-26.255-26.255-26.255h-7.159c-20.814 0-32.976-23.469-20.9742-40.475l51.0042-72.268Z" />
      <path stroke="url(#k)" d="m569.97-23.7127-3.163-2.232 3.163 2.232c2.202-3.12 3.384-6.8452 3.384-10.6639 0-10.214-8.28-18.4941-18.494-18.4941H410.895c-14.5 0-26.255 11.7547-26.255 26.2548 0 14.5002 11.755 26.254831 26.255 26.254833h7.9c21.415.000002 33.928 24.146367 21.58 41.642767l-50.18 71.1003 3.163 2.232-3.163-2.232c-2.202 3.12-3.384 6.845-3.384 10.664 0 10.214 8.28 18.494 18.494 18.494h141.794c14.5 0 26.255-11.754 26.255-26.255 0-14.5-11.755-26.2543-26.255-26.2543h-7.159c-20.814 0-32.976-23.4691-20.974-40.4747l51.004-72.2687Z" />
      <path stroke="url(#l)" d="m354.714-23.7127-3.162-2.232 3.162 2.232c2.202-3.12 3.384-6.8452 3.384-10.6639 0-10.214-8.28-18.4941-18.494-18.4941H195.64c-14.501 0-26.255 11.7547-26.255 26.2548 0 14.5002 11.755 26.254831 26.255 26.254833h7.899c21.415.000002 33.928 24.146367 21.58 41.642767l-50.18 71.1003 3.163 2.232-3.163-2.232c-2.201 3.12-3.384 6.845-3.384 10.664 0 10.214 8.28 18.494 18.494 18.494h141.794c14.5 0 26.255-11.754 26.255-26.255 0-14.5-11.755-26.2543-26.255-26.2543h-7.158c-20.815 0-32.977-23.4691-20.975-40.4747l51.004-72.2687Z" />
      <path stroke="url(#m)" d="m139.458-23.7127-3.162-2.232 3.162 2.232c2.202-3.12 3.384-6.8452 3.384-10.6639 0-10.214-8.28-18.4941-18.494-18.4941H-19.616c-14.5001 0-26.2548 11.7547-26.2548 26.2548 0 14.5002 11.7547 26.254831 26.2549 26.254833h7.8995C9.69854-.361065 22.2115 23.7853 9.86332 41.2817L-40.3161 112.382l3.1624 2.232-3.1624-2.232c-2.202 3.12-3.3841 6.845-3.3841 10.664 0 10.214 8.2801 18.494 18.4941 18.494H116.588c14.5 0 26.254-11.754 26.254-26.255 0-14.5-11.754-26.2543-26.254-26.2543h-7.159c-20.8143 0-32.9762-23.4691-20.9745-40.4747l51.0035-72.2687Z" />
    </g>
  </g>
  <defs>
    <linearGradient id="b" x1="368.873" x2="142.353" y1="117.143" y2="396.398" gradientUnits="userSpaceOnUse">
      <stop stop-color="#2C3B5C" />
      <stop offset="1" stop-color="#111827" />
    </linearGradient>
    <linearGradient id="c" x1="267.062" x2="267.062" y1="162" y2="364.298" gradientUnits="userSpaceOnUse">
      <stop stop-color="#2FB184" />
      <stop offset="1" stop-color="#2C4C9D" />
    </linearGradient>
    <linearGradient id="e" x1="267.062" x2="267.062" y1="162" y2="364.298" gradientUnits="userSpaceOnUse">
      <stop stop-color="#38CB98" />
      <stop offset="1" stop-color="#3861CB" />
    </linearGradient>
    <linearGradient id="f" x1="478.997" x2="478.997" y1="584" y2="397.33" gradientUnits="userSpaceOnUse">
      <stop stop-color="#38CA99" />
      <stop offset="1" stop-color="#2C7BB5" />
    </linearGradient>
    <linearGradient id="g" x1="263.341" x2="263.341" y1="583.36" y2="396.69" gradientUnits="userSpaceOnUse">
      <stop stop-color="#38CA99" />
      <stop offset="1" stop-color="#2C7BB5" />
    </linearGradient>
    <linearGradient id="h" x1="48.4861" x2="48.4861" y1="584" y2="397.33" gradientUnits="userSpaceOnUse">
      <stop stop-color="#38CA99" />
      <stop offset="1" stop-color="#2C7BB5" />
    </linearGradient>
    <linearGradient id="i" x1="478.997" x2="478.997" y1="358.623" y2="171.953" gradientUnits="userSpaceOnUse">
      <stop stop-color="#38CA99" />
      <stop offset="1" stop-color="#2C7BB5" />
    </linearGradient>
    <linearGradient id="j" x1="48.4861" x2="48.4861" y1="358.623" y2="171.953" gradientUnits="userSpaceOnUse">
      <stop stop-color="#38CA99" />
      <stop offset="1" stop-color="#2C7BB5" />
    </linearGradient>
    <linearGradient id="k" x1="478.997" x2="478.997" y1="137.67" y2="-48.9999" gradientUnits="userSpaceOnUse">
      <stop stop-color="#38CA99" />
      <stop offset="1" stop-color="#2C7BB5" />
    </linearGradient>
    <linearGradient id="l" x1="263.741" x2="263.741" y1="137.67" y2="-48.9999" gradientUnits="userSpaceOnUse">
      <stop stop-color="#38CA99" />
      <stop offset="1" stop-color="#2C7BB5" />
    </linearGradient>
    <linearGradient id="m" x1="48.4858" x2="48.4858" y1="137.67" y2="-48.9999" gradientUnits="userSpaceOnUse">
      <stop stop-color="#38CA99" />
      <stop offset="1" stop-color="#2C7BB5" />
    </linearGradient>
    <filter id="d" width="244.064" height="250.239" x="145.03" y="138.03" color-interpolation-filters="sRGB" filterUnits="userSpaceOnUse">
      <feFlood flood-opacity="0" result="BackgroundImageFix" />
      <feGaussianBlur in="BackgroundImageFix" stdDeviation="11.9852" />
      <feComposite in2="SourceAlpha" operator="in" result="effect1_backgroundBlur_55_0" />
      <feBlend in="SourceGraphic" in2="effect1_backgroundBlur_55_0" result="shape" />
    </filter>
  </defs>
</svg>